<mxfile host="app.diagrams.net" modified="2021-07-26T11:28:02.037Z" agent="5.0 (X11; Linux x86_64) AppleWebKit/537.36 (KHTML, like Gecko) Chrome/91.0.4472.114 Safari/537.36" etag="YiNN2THBIRFfF3YcwxpM" version="14.8.0" type="github">
  <diagram id="TwTx-ZRmgZwK5tEy4KaO" name="Page-1">
    <mxGraphModel dx="470" dy="760" grid="1" gridSize="10" guides="1" tooltips="1" connect="1" arrows="1" fold="1" page="1" pageScale="1" pageWidth="827" pageHeight="1169" math="0" shadow="0">
      <root>
        <mxCell id="0" />
        <mxCell id="1" parent="0" />
        <mxCell id="xr4ZOkM3LtoIkokvCL2A-1" value="" style="rounded=1;whiteSpace=wrap;html=1;fillColor=#f5f5f5;strokeColor=#666666;fontColor=#333333;" vertex="1" parent="1">
          <mxGeometry x="140" y="330" width="260" height="60" as="geometry" />
        </mxCell>
        <mxCell id="xr4ZOkM3LtoIkokvCL2A-2" value="&lt;font style=&quot;font-size: 13px&quot;&gt;敏捷开发&amp;nbsp; &amp;nbsp;战略创新&lt;/font&gt;" style="text;html=1;strokeColor=none;fillColor=none;align=center;verticalAlign=middle;whiteSpace=wrap;rounded=0;" vertex="1" parent="1">
          <mxGeometry x="210" y="360" width="120" height="20" as="geometry" />
        </mxCell>
        <mxCell id="xr4ZOkM3LtoIkokvCL2A-3" value="&lt;font style=&quot;font-size: 16px&quot;&gt;&lt;b&gt;前台&lt;/b&gt;&lt;/font&gt;" style="text;html=1;strokeColor=none;fillColor=none;align=center;verticalAlign=middle;whiteSpace=wrap;rounded=0;" vertex="1" parent="1">
          <mxGeometry x="250" y="340" width="40" height="20" as="geometry" />
        </mxCell>
        <mxCell id="xr4ZOkM3LtoIkokvCL2A-4" value="" style="rounded=1;whiteSpace=wrap;html=1;strokeWidth=3;dashed=1;" vertex="1" parent="1">
          <mxGeometry x="120" y="400" width="300" height="130" as="geometry" />
        </mxCell>
        <mxCell id="xr4ZOkM3LtoIkokvCL2A-5" value="快速提供服务" style="text;html=1;strokeColor=none;fillColor=none;align=center;verticalAlign=middle;whiteSpace=wrap;rounded=0;dashed=1;fontStyle=1;fontSize=12;" vertex="1" parent="1">
          <mxGeometry x="130" y="440" width="80" height="20" as="geometry" />
        </mxCell>
        <mxCell id="xr4ZOkM3LtoIkokvCL2A-6" value="高性能高安全" style="text;html=1;strokeColor=none;fillColor=none;align=center;verticalAlign=middle;whiteSpace=wrap;rounded=0;dashed=1;fontStyle=1;fontSize=12;" vertex="1" parent="1">
          <mxGeometry x="130" y="470" width="80" height="30" as="geometry" />
        </mxCell>
        <mxCell id="xr4ZOkM3LtoIkokvCL2A-7" value="" style="html=1;verticalLabelPosition=bottom;align=center;labelBackgroundColor=#ffffff;verticalAlign=top;strokeWidth=2;strokeColor=#0080F0;shadow=0;dashed=0;shape=mxgraph.ios7.icons.back;fontSize=12;" vertex="1" parent="1">
          <mxGeometry x="227.5" y="430" width="85" height="30" as="geometry" />
        </mxCell>
        <mxCell id="xr4ZOkM3LtoIkokvCL2A-8" value="" style="html=1;verticalLabelPosition=bottom;align=center;labelBackgroundColor=#ffffff;verticalAlign=top;strokeWidth=2;strokeColor=#0080F0;shadow=0;dashed=0;shape=mxgraph.ios7.icons.back;fontSize=12;rotation=-180;" vertex="1" parent="1">
          <mxGeometry x="232.5" y="470" width="80" height="30" as="geometry" />
        </mxCell>
        <mxCell id="xr4ZOkM3LtoIkokvCL2A-9" value="&lt;font style=&quot;font-size: 16px&quot;&gt;Data API&lt;/font&gt;" style="text;html=1;strokeColor=none;fillColor=none;align=center;verticalAlign=middle;whiteSpace=wrap;rounded=0;dashed=1;fontSize=12;fontStyle=1" vertex="1" parent="1">
          <mxGeometry x="235" y="450" width="70" height="30" as="geometry" />
        </mxCell>
        <mxCell id="xr4ZOkM3LtoIkokvCL2A-10" value="优化数据模型" style="text;html=1;strokeColor=none;fillColor=none;align=center;verticalAlign=middle;whiteSpace=wrap;rounded=0;dashed=1;fontStyle=1;fontSize=12;" vertex="1" parent="1">
          <mxGeometry x="330" y="440" width="80" height="20" as="geometry" />
        </mxCell>
        <mxCell id="xr4ZOkM3LtoIkokvCL2A-11" value="提升数据质量" style="text;html=1;strokeColor=none;fillColor=none;align=center;verticalAlign=middle;whiteSpace=wrap;rounded=0;dashed=1;fontStyle=1;fontSize=12;" vertex="1" parent="1">
          <mxGeometry x="330" y="470" width="80" height="30" as="geometry" />
        </mxCell>
        <mxCell id="xr4ZOkM3LtoIkokvCL2A-12" value="" style="rounded=1;whiteSpace=wrap;html=1;fillColor=#f5f5f5;strokeColor=#666666;fontColor=#333333;" vertex="1" parent="1">
          <mxGeometry x="140" y="555" width="260" height="60" as="geometry" />
        </mxCell>
        <mxCell id="xr4ZOkM3LtoIkokvCL2A-13" value="&lt;span style=&quot;font-size: 13px&quot;&gt;数据开发&amp;nbsp; 稳步前进&lt;/span&gt;" style="text;html=1;strokeColor=none;fillColor=none;align=center;verticalAlign=middle;whiteSpace=wrap;rounded=0;" vertex="1" parent="1">
          <mxGeometry x="210" y="585" width="120" height="20" as="geometry" />
        </mxCell>
        <mxCell id="xr4ZOkM3LtoIkokvCL2A-14" value="&lt;font style=&quot;font-size: 16px&quot;&gt;&lt;b&gt;后台&lt;/b&gt;&lt;/font&gt;" style="text;html=1;strokeColor=none;fillColor=none;align=center;verticalAlign=middle;whiteSpace=wrap;rounded=0;" vertex="1" parent="1">
          <mxGeometry x="250" y="565" width="40" height="20" as="geometry" />
        </mxCell>
      </root>
    </mxGraphModel>
  </diagram>
</mxfile>
